/* XPM */
static char * C:\Users\SotaMursu\Desktop\New folder (3)\New folder (13)\Startplatform_xpm[] = {
"64 64 16 1",
" 	c None",
".	c #FF0077",
"+	c #DC0021",
"@	c #0078FF",
"#	c #00B0FF",
"$	c #00CAFF",
"%	c #00DBFF",
"&	c #00E4FF",
"*	c #00EAFF",
"=	c #0087FF",
"-	c #00C6FF",
";	c #00EEFF",
">	c #00A4FF",
",	c #0092FF",
"'	c #00DEFF",
")	c #009BFF",
"                                                                ",
"                                                                ",
"  ............................................................  ",
"  ............................................................  ",
"  ............................................................  ",
"  ............................................................  ",
"  ....++++++++++++++++++++++++++++++++++++++++++++++++++++....  ",
"  ....++++++++++++++++++++++++++++++++++++++++++++++++++++....  ",
"  ....++++++++++++++++++++@#$%&**&%$#@++++++++++++++++++++....  ",
"  ....+++++++++++++++++=-&;;;;;;;;;;;;&-=+++++++++++++++++....  ",
"  ....+++++++++++++++>%;;;;;;;;;;;;;;;;;;%>+++++++++++++++....  ",
"  ....+++++++++++++,%;;;;;;;;;;;;;;;;;;;;;;%,+++++++++++++....  ",
"  ....++++++++++++-;;;;;;;;;;;;;;;;;;;;;;;;;;-++++++++++++....  ",
"  ....++++++++++@';;;;;;;;;;;;;;;;;;;;;;;;;;;;'@++++++++++....  ",
"  ....+++++++++)*;;;;;;;;;;;;;;;;;;;;;;;;;;;;;;*)+++++++++....  ",
"  ....++++++++);;;;;;;;;;;;;;;;;;;;;;;;;;;;;;;;;;)++++++++....  ",
"  ....+++++++@*;;;;;;;;;;;;;;;;;;;;;;;;;;;;;;;;;;*@+++++++....  ",
"  ....+++++++';;;;;;;;;;;;;;;;;;;;;;;;;;;;;;;;;;;;'+++++++....  ",
"  ....++++++-;;;;;;;;;;;;;;;;;;;;;;;;;;;;;;;;;;;;;;-++++++....  ",
"  ....+++++,;;;;;;;;;;;;;;;;;;;;;;;;;;;;;;;;;;;;;;;;,+++++....  ",
"  ....+++++%;;;;;;;;;;;;;;;;;;;;;;;;;;;;;;;;;;;;;;;;%+++++....  ",
"  ....++++>;;;;;;;;;;;;;;;;;;;;;;;;;;;;;;;;;;;;;;;;;;>++++....  ",
"  ....++++%;;;;;;;;;;;;;;;;;;;;;;;;;;;;;;;;;;;;;;;;;;%++++....  ",
"  ....+++=;;;;;;;;;;;;;;;;;;;;;;;;;;;;;;;;;;;;;;;;;;;;=+++....  ",
"  ....+++-;;;;;;;;;;;;;;;;;;;;;;;;;;;;;;;;;;;;;;;;;;;;-+++....  ",
"  ....+++&;;;;;;;;;;;;;;;;;;;;;;;;;;;;;;;;;;;;;;;;;;;;&+++....  ",
"  ....++@;;;;;;;;;;;;;;;;;;;;;;;;;;;;;;;;;;;;;;;;;;;;;;@++....  ",
"  ....++#;;;;;;;;;;;;;;;;;;;;;;;;;;;;;;;;;;;;;;;;;;;;;;#++....  ",
"  ....++$;;;;;;;;;;;;;;;;;;;;;;;;;;;;;;;;;;;;;;;;;;;;;;$++....  ",
"  ....++%;;;;;;;;;;;;;;;;;;;;;;;;;;;;;;;;;;;;;;;;;;;;;;%++....  ",
"  ....++&;;;;;;;;;;;;;;;;;;;;;;;;;;;;;;;;;;;;;;;;;;;;;;&++....  ",
"  ....++*;;;;;;;;;;;;;;;;;;;;;;;;;;;;;;;;;;;;;;;;;;;;;;*++....  ",
"  ....++*;;;;;;;;;;;;;;;;;;;;;;;;;;;;;;;;;;;;;;;;;;;;;;*++....  ",
"  ....++&;;;;;;;;;;;;;;;;;;;;;;;;;;;;;;;;;;;;;;;;;;;;;;&++....  ",
"  ....++%;;;;;;;;;;;;;;;;;;;;;;;;;;;;;;;;;;;;;;;;;;;;;;%++....  ",
"  ....++$;;;;;;;;;;;;;;;;;;;;;;;;;;;;;;;;;;;;;;;;;;;;;;$++....  ",
"  ....++#;;;;;;;;;;;;;;;;;;;;;;;;;;;;;;;;;;;;;;;;;;;;;;#++....  ",
"  ....++@;;;;;;;;;;;;;;;;;;;;;;;;;;;;;;;;;;;;;;;;;;;;;;@++....  ",
"  ....+++&;;;;;;;;;;;;;;;;;;;;;;;;;;;;;;;;;;;;;;;;;;;;&+++....  ",
"  ....+++-;;;;;;;;;;;;;;;;;;;;;;;;;;;;;;;;;;;;;;;;;;;;-+++....  ",
"  ....+++=;;;;;;;;;;;;;;;;;;;;;;;;;;;;;;;;;;;;;;;;;;;;=+++....  ",
"  ....++++%;;;;;;;;;;;;;;;;;;;;;;;;;;;;;;;;;;;;;;;;;;%++++....  ",
"  ....++++>;;;;;;;;;;;;;;;;;;;;;;;;;;;;;;;;;;;;;;;;;;>++++....  ",
"  ....+++++%;;;;;;;;;;;;;;;;;;;;;;;;;;;;;;;;;;;;;;;;%+++++....  ",
"  ....+++++,;;;;;;;;;;;;;;;;;;;;;;;;;;;;;;;;;;;;;;;;,+++++....  ",
"  ....++++++-;;;;;;;;;;;;;;;;;;;;;;;;;;;;;;;;;;;;;;-++++++....  ",
"  ....+++++++';;;;;;;;;;;;;;;;;;;;;;;;;;;;;;;;;;;;'+++++++....  ",
"  ....+++++++@*;;;;;;;;;;;;;;;;;;;;;;;;;;;;;;;;;;*@+++++++....  ",
"  ....++++++++);;;;;;;;;;;;;;;;;;;;;;;;;;;;;;;;;;)++++++++....  ",
"  ....+++++++++)*;;;;;;;;;;;;;;;;;;;;;;;;;;;;;;*)+++++++++....  ",
"  ....++++++++++@';;;;;;;;;;;;;;;;;;;;;;;;;;;;'@++++++++++....  ",
"  ....++++++++++++-;;;;;;;;;;;;;;;;;;;;;;;;;;-++++++++++++....  ",
"  ....+++++++++++++,%;;;;;;;;;;;;;;;;;;;;;;%,+++++++++++++....  ",
"  ....+++++++++++++++>%;;;;;;;;;;;;;;;;;;%>+++++++++++++++....  ",
"  ....+++++++++++++++++=-&;;;;;;;;;;;;&-=+++++++++++++++++....  ",
"  ....++++++++++++++++++++@#$%&**&%$#@++++++++++++++++++++....  ",
"  ....++++++++++++++++++++++++++++++++++++++++++++++++++++....  ",
"  ....++++++++++++++++++++++++++++++++++++++++++++++++++++....  ",
"  ............................................................  ",
"  ............................................................  ",
"  ............................................................  ",
"  ............................................................  ",
"                                                                ",
"                                                                "};
