/* XPM */
static char * C:\Users\SotaMursu\Desktop\New folder (3)\New folder (13)\testc64_xpm[] = {
"64 64 10 1",
" 	c #001F00",
".	c #00FFFF",
"+	c #000000",
"@	c #FFFFFF",
"#	c #FFF002",
"$	c #5D0023",
"%	c #002188",
"&	c #FFA9FF",
"*	c #FFB390",
"=	c #000077",
"                ................                ................",
"                ................                ................",
"                ................                ................",
"                ................                ................",
"                ................                ................",
"                ................                ................",
"                ................                ................",
"                ................                ................",
"++++++++++++++++@@@@@@@@@@@@@@@@++++++++++++++++@@@@@@@@@@@@@@@@",
"++++++++++++++++@@@@@@@@@@@@@@@@++++++++++++++++@@@@@@@@@@@@@@@@",
"++++++++++++++++@@@@@@@@@@@@@@@@++++++++++++++++@@@@@@@@@@@@@@@@",
"++++++++++++++++@@@@@@@@@@@@@@@@++++++++++++++++@@@@@@@@@@@@@@@@",
"++++++++++++++++@@@@@@@@@@@@@@@@++++++++++++++++@@@@@@@@@@@@@@@@",
"++++++++++++++++@@@@@@@@@@@@@@@@++++++++++++++++@@@@@@@@@@@@@@@@",
"++++++++++++++++@@@@@@@@@@@@@@@@++++++++++++++++@@@@@@@@@@@@@@@@",
"++++++++++++++++@@@@@@@@@@@@@@@@++++++++++++++++@@@@@@@@@@@@@@@@",
"################$$$$$$$$$$$$$$$$################$$$$$$$$$$$$$$$$",
"################$$$$$$$$$$$$$$$$################$$$$$$$$$$$$$$$$",
"################$$$$$$$$$$$$$$$$################$$$$$$$$$$$$$$$$",
"################$$$$$$$$$$$$$$$$################$$$$$$$$$$$$$$$$",
"################$$$$$$$$$$$$$$$$################$$$$$$$$$$$$$$$$",
"################$$$$$$$$$$$$$$$$################$$$$$$$$$$$$$$$$",
"################$$$$$$$$$$$$$$$$################$$$$$$$$$$$$$$$$",
"################$$$$$$$$$$$$$$$$################$$$$$$$$$$$$$$$$",
"@@@@@@@@@@@@@@@@++++++++++++++++@@@@@@@@@@@@@@@@++++++++++++++++",
"@@@@@@@@@@@@@@@@++++++++++++++++@@@@@@@@@@@@@@@@++++++++++++++++",
"@@@@@@@@@@@@@@@@++++++++++++++++@@@@@@@@@@@@@@@@++++++++++++++++",
"@@@@@@@@@@@@@@@@++++++++++++++++@@@@@@@@@@@@@@@@++++++++++++++++",
"@@@@@@@@@@@@@@@@++++++++++++++++@@@@@@@@@@@@@@@@++++++++++++++++",
"@@@@@@@@@@@@@@@@++++++++++++++++@@@@@@@@@@@@@@@@++++++++++++++++",
"@@@@@@@@@@@@@@@@++++++++++++++++@@@@@@@@@@@@@@@@++++++++++++++++",
"@@@@@@@@@@@@@@@@++++++++++++++++@@@@@@@@@@@@@@@@++++++++++++++++",
"%%%%%%%%%%%%%%%%&&&&&&&&&&&&&&&&%%%%%%%%%%%%%%%%&&&&&&&&&&&&&&&&",
"%%%%%%%%%%%%%%%%&&&&&&&&&&&&&&&&%%%%%%%%%%%%%%%%&&&&&&&&&&&&&&&&",
"%%%%%%%%%%%%%%%%&&&&&&&&&&&&&&&&%%%%%%%%%%%%%%%%&&&&&&&&&&&&&&&&",
"%%%%%%%%%%%%%%%%&&&&&&&&&&&&&&&&%%%%%%%%%%%%%%%%&&&&&&&&&&&&&&&&",
"%%%%%%%%%%%%%%%%&&&&&&&&&&&&&&&&%%%%%%%%%%%%%%%%&&&&&&&&&&&&&&&&",
"%%%%%%%%%%%%%%%%&&&&&&&&&&&&&&&&%%%%%%%%%%%%%%%%&&&&&&&&&&&&&&&&",
"%%%%%%%%%%%%%%%%&&&&&&&&&&&&&&&&%%%%%%%%%%%%%%%%&&&&&&&&&&&&&&&&",
"%%%%%%%%%%%%%%%%&&&&&&&&&&&&&&&&%%%%%%%%%%%%%%%%&&&&&&&&&&&&&&&&",
"++++++++++++++++@@@@@@@@@@@@@@@@++++++++++++++++@@@@@@@@@@@@@@@@",
"++++++++++++++++@@@@@@@@@@@@@@@@++++++++++++++++@@@@@@@@@@@@@@@@",
"++++++++++++++++@@@@@@@@@@@@@@@@++++++++++++++++@@@@@@@@@@@@@@@@",
"++++++++++++++++@@@@@@@@@@@@@@@@++++++++++++++++@@@@@@@@@@@@@@@@",
"++++++++++++++++@@@@@@@@@@@@@@@@++++++++++++++++@@@@@@@@@@@@@@@@",
"++++++++++++++++@@@@@@@@@@@@@@@@++++++++++++++++@@@@@@@@@@@@@@@@",
"++++++++++++++++@@@@@@@@@@@@@@@@++++++++++++++++@@@@@@@@@@@@@@@@",
"++++++++++++++++@@@@@@@@@@@@@@@@++++++++++++++++@@@@@@@@@@@@@@@@",
"****************================****************================",
"****************================****************================",
"****************================****************================",
"****************================****************================",
"****************================****************================",
"****************================****************================",
"****************================****************================",
"****************================****************================",
"@@@@@@@@@@@@@@@@++++++++++++++++@@@@@@@@@@@@@@@@++++++++++++++++",
"@@@@@@@@@@@@@@@@++++++++++++++++@@@@@@@@@@@@@@@@++++++++++++++++",
"@@@@@@@@@@@@@@@@++++++++++++++++@@@@@@@@@@@@@@@@++++++++++++++++",
"@@@@@@@@@@@@@@@@++++++++++++++++@@@@@@@@@@@@@@@@++++++++++++++++",
"@@@@@@@@@@@@@@@@++++++++++++++++@@@@@@@@@@@@@@@@++++++++++++++++",
"@@@@@@@@@@@@@@@@++++++++++++++++@@@@@@@@@@@@@@@@++++++++++++++++",
"@@@@@@@@@@@@@@@@++++++++++++++++@@@@@@@@@@@@@@@@++++++++++++++++",
"@@@@@@@@@@@@@@@@++++++++++++++++@@@@@@@@@@@@@@@@++++++++++++++++"};
