/* XPM */
static char * C:\Users\SotaMursu\Desktop\New folder (3)\New folder (13)\testboard64_xpm[] = {
"64 64 2 1",
" 	c #000000",
".	c #FFFFFF",
"                ................                ................",
"                ................                ................",
"                ................                ................",
"                ................                ................",
"                ................                ................",
"                ................                ................",
"                ................                ................",
"                ................                ................",
"                ................                ................",
"                ................                ................",
"                ................                ................",
"                ................                ................",
"                ................                ................",
"                ................                ................",
"                ................                ................",
"                ................                ................",
"................                ................                ",
"................                ................                ",
"................                ................                ",
"................                ................                ",
"................                ................                ",
"................                ................                ",
"................                ................                ",
"................                ................                ",
"................                ................                ",
"................                ................                ",
"................                ................                ",
"................                ................                ",
"................                ................                ",
"................                ................                ",
"................                ................                ",
"................                ................                ",
"                ................                ................",
"                ................                ................",
"                ................                ................",
"                ................                ................",
"                ................                ................",
"                ................                ................",
"                ................                ................",
"                ................                ................",
"                ................                ................",
"                ................                ................",
"                ................                ................",
"                ................                ................",
"                ................                ................",
"                ................                ................",
"                ................                ................",
"                ................                ................",
"................                ................                ",
"................                ................                ",
"................                ................                ",
"................                ................                ",
"................                ................                ",
"................                ................                ",
"................                ................                ",
"................                ................                ",
"................                ................                ",
"................                ................                ",
"................                ................                ",
"................                ................                ",
"................                ................                ",
"................                ................                ",
"................                ................                ",
"................                ................                "};
